<?xml version="1.0" encoding="UTF-8" standalone="no"?>
<svg
   width="128"
   height="128"
   viewBox="0 0 33.866666 33.866668"
   version="1.1"
   id="svg8"
   inkscape:version="1.3 (1:1.3+202307231459+0e150ed6c4)"
   sodipodi:docname="MComix-logo_CCby-SenlinOS.svg"
   xml:space="preserve"
   inkscape:export-filename="MComix-logo_CCby-SenlinOS.png"
   inkscape:export-xdpi="72"
   inkscape:export-ydpi="72"
   xmlns:inkscape="http://www.inkscape.org/namespaces/inkscape"
   xmlns:sodipodi="http://sodipodi.sourceforge.net/DTD/sodipodi-0.dtd"
   xmlns:xlink="http://www.w3.org/1999/xlink"
   xmlns="http://www.w3.org/2000/svg"
   xmlns:svg="http://www.w3.org/2000/svg"
   xmlns:rdf="http://www.w3.org/1999/02/22-rdf-syntax-ns#"
   xmlns:cc="http://creativecommons.org/ns#"
   xmlns:dc="http://purl.org/dc/elements/1.1/"><defs
     id="defs2"><linearGradient
       inkscape:collect="always"
       id="linearGradient1008"><stop
         style="stop-color:#ffad4d;stop-opacity:1;"
         offset="0"
         id="stop1004" /><stop
         style="stop-color:#ffad4d;stop-opacity:0;"
         offset="1"
         id="stop1006" /></linearGradient><marker
       style="overflow:visible"
       id="marker1630"
       refX="0.0"
       refY="0.0"
       orient="auto"
       inkscape:stockid="StopS"
       inkscape:isstock="true"><path
         transform="scale(0.2)"
         style="fill:none;fill-opacity:0.75;fill-rule:evenodd;stroke:#550000;stroke-width:1pt;stroke-opacity:1"
         d="M 0.0,5.65 L 0.0,-5.65"
         id="path1628" /></marker><marker
       style="overflow:visible"
       id="StopS"
       refX="0.0"
       refY="0.0"
       orient="auto"
       inkscape:stockid="StopS"
       inkscape:isstock="true"><path
         transform="scale(0.2)"
         style="fill:none;fill-opacity:0.75;fill-rule:evenodd;stroke:#550000;stroke-width:1pt;stroke-opacity:1"
         d="M 0.0,5.65 L 0.0,-5.65"
         id="path1327" /></marker><marker
       style="overflow:visible"
       id="CurveIn"
       refX="0.0"
       refY="0.0"
       orient="auto"
       inkscape:stockid="CurveIn"
       inkscape:isstock="true"><path
         transform="scale(0.6)"
         style="fill-rule:evenodd;stroke:#550000;stroke-width:1pt;fill:none;stroke-opacity:1"
         d="M 4.6254930,-5.0456926 C 1.8654930,-5.0456926 -0.37450702,-2.8056926 -0.37450702,-0.045692580 C -0.37450702,2.7143074 1.8654930,4.9543074 4.6254930,4.9543074"
         id="path1336" /></marker><marker
       style="overflow:visible"
       id="SemiCircleIn"
       refX="0.0"
       refY="0.0"
       orient="auto"
       inkscape:stockid="SemiCircleIn"
       inkscape:isstock="true"><path
         transform="scale(0.6)"
         style="fill-rule:evenodd;stroke:#550000;stroke-width:1pt;stroke-opacity:1;fill:#550000;fill-opacity:1"
         d="M -0.37450702,-0.045692580 C -0.37450702,2.7143074 1.8654930,4.9543074 4.6254930,4.9543074 L 4.6254930,-5.0456926 C 1.8654930,-5.0456926 -0.37450702,-2.8056926 -0.37450702,-0.045692580 z "
         id="path1330" /></marker><marker
       style="overflow:visible"
       id="DotS"
       refX="0.0"
       refY="0.0"
       orient="auto"
       inkscape:stockid="DotS"
       inkscape:isstock="true"><path
         transform="scale(0.2) translate(7.4, 1)"
         style="fill-rule:evenodd;stroke:#550000;stroke-width:1pt;stroke-opacity:1;fill:#550000;fill-opacity:1"
         d="M -2.5,-1.0 C -2.5,1.7600000 -4.7400000,4.0 -7.5,4.0 C -10.260000,4.0 -12.5,1.7600000 -12.5,-1.0 C -12.5,-3.7600000 -10.260000,-6.0 -7.5,-6.0 C -4.7400000,-6.0 -2.5,-3.7600000 -2.5,-1.0 z "
         id="path1219" /></marker><marker
       style="overflow:visible"
       id="DotL"
       refX="0.0"
       refY="0.0"
       orient="auto"
       inkscape:stockid="DotL"
       inkscape:isstock="true"><path
         transform="scale(0.8) translate(7.4, 1)"
         style="fill-rule:evenodd;stroke:#550000;stroke-width:1pt;stroke-opacity:1;fill:#550000;fill-opacity:1"
         d="M -2.5,-1.0 C -2.5,1.7600000 -4.7400000,4.0 -7.5,4.0 C -10.260000,4.0 -12.5,1.7600000 -12.5,-1.0 C -12.5,-3.7600000 -10.260000,-6.0 -7.5,-6.0 C -4.7400000,-6.0 -2.5,-3.7600000 -2.5,-1.0 z "
         id="path1213" /></marker><linearGradient
       inkscape:collect="always"
       id="linearGradient910"><stop
         style="stop-color:#843729;stop-opacity:1"
         offset="0"
         id="stop906" /><stop
         style="stop-color:#bc5b0d;stop-opacity:1"
         offset="1"
         id="stop908" /></linearGradient><linearGradient
       inkscape:collect="always"
       id="linearGradient5484"><stop
         style="stop-color:#792026;stop-opacity:1"
         offset="0"
         id="stop5480" /><stop
         style="stop-color:#a25c3b;stop-opacity:1"
         offset="1"
         id="stop5482" /></linearGradient><linearGradient
       inkscape:collect="always"
       id="linearGradient5454"><stop
         style="stop-color:#b46435;stop-opacity:1"
         offset="0"
         id="stop5450" /><stop
         style="stop-color:#e6bd90;stop-opacity:1"
         offset="1"
         id="stop5452" /></linearGradient><linearGradient
       inkscape:collect="always"
       id="linearGradient1459"><stop
         style="stop-color:#ad521b;stop-opacity:1"
         offset="0"
         id="stop1455" /><stop
         style="stop-color:#ffb2b2;stop-opacity:1"
         offset="1"
         id="stop1457" /></linearGradient><linearGradient
       inkscape:collect="always"
       id="linearGradient1331"><stop
         style="stop-color:#da723d;stop-opacity:1;"
         offset="0"
         id="stop1327" /><stop
         style="stop-color:#f6e6bf;stop-opacity:1"
         offset="1"
         id="stop1329" /></linearGradient><linearGradient
       inkscape:collect="always"
       id="linearGradient1300"><stop
         style="stop-color:#f7dba3;stop-opacity:1"
         offset="0"
         id="stop1296" /><stop
         id="stop1304"
         offset="0.19252698"
         style="stop-color:#e8ac7e;stop-opacity:1;" /><stop
         style="stop-color:#da713c;stop-opacity:1"
         offset="1"
         id="stop1298" /></linearGradient><linearGradient
       inkscape:collect="always"
       xlink:href="#linearGradient1300"
       id="linearGradient1302"
       x1="17.092945"
       y1="271.31897"
       x2="17.092945"
       y2="293.60251"
       gradientUnits="userSpaceOnUse"
       gradientTransform="matrix(1.0124353,0,0,1.0124565,-0.21057108,-3.3291173)" /><linearGradient
       inkscape:collect="always"
       xlink:href="#linearGradient1331"
       id="linearGradient1333"
       x1="1.3765625"
       y1="280.44199"
       x2="8.4554682"
       y2="276.4071"
       gradientUnits="userSpaceOnUse" /><linearGradient
       inkscape:collect="always"
       xlink:href="#linearGradient1459"
       id="linearGradient1461"
       x1="16.90309"
       y1="286.48035"
       x2="16.90309"
       y2="287.61429"
       gradientUnits="userSpaceOnUse"
       gradientTransform="matrix(0.80183097,0,0,0.80184776,3.3556592,57.181017)" /><filter
       inkscape:collect="always"
       style="color-interpolation-filters:sRGB"
       id="filter1465"
       x="-0.27"
       width="1.54"
       y="-0.54"
       height="2.08"><feGaussianBlur
         inkscape:collect="always"
         stdDeviation="0.24385156"
         id="feGaussianBlur1467" /></filter><filter
       inkscape:collect="always"
       style="color-interpolation-filters:sRGB"
       id="filter1603"
       x="-0.21794395"
       width="1.4358879"
       y="-0.78956266"
       height="2.5791253"><feGaussianBlur
         inkscape:collect="always"
         stdDeviation="0.20901497"
         id="feGaussianBlur1605" /></filter><filter
       inkscape:collect="always"
       style="color-interpolation-filters:sRGB"
       id="filter4387"
       x="-0.20772749"
       width="1.415455"
       y="-0.44152663"
       height="1.8830533"><feGaussianBlur
         inkscape:collect="always"
         stdDeviation="0.30164103"
         id="feGaussianBlur4389" /></filter><linearGradient
       inkscape:collect="always"
       xlink:href="#linearGradient1331"
       id="linearGradient4653"
       gradientUnits="userSpaceOnUse"
       x1="1.3765625"
       y1="280.44199"
       x2="8.4554682"
       y2="276.4071" /><filter
       inkscape:collect="always"
       style="color-interpolation-filters:sRGB"
       id="filter5181"
       x="-0.083999999"
       width="1.168"
       y="-0.083999999"
       height="1.168"><feGaussianBlur
         inkscape:collect="always"
         stdDeviation="0.22688021"
         id="feGaussianBlur5183" /></filter><filter
       inkscape:collect="always"
       style="color-interpolation-filters:sRGB"
       id="filter5187"
       x="-0.2077266"
       width="1.4154532"
       y="-0.44152475"
       height="1.8830495"><feGaussianBlur
         inkscape:collect="always"
         stdDeviation="0.30163973"
         id="feGaussianBlur5189" /></filter><linearGradient
       inkscape:collect="always"
       xlink:href="#linearGradient5454"
       id="linearGradient5456"
       x1="16.999479"
       y1="269.88647"
       x2="16.999479"
       y2="268.20013"
       gradientUnits="userSpaceOnUse"
       gradientTransform="translate(0.07015825,0.07015825)" /><linearGradient
       inkscape:collect="always"
       xlink:href="#linearGradient5484"
       id="linearGradient5486"
       x1="16.796539"
       y1="270.12357"
       x2="16.023035"
       y2="267.23682"
       gradientUnits="userSpaceOnUse" /><linearGradient
       inkscape:collect="always"
       xlink:href="#linearGradient910"
       id="linearGradient912"
       x1="17.048454"
       y1="270.86603"
       x2="17.048454"
       y2="267.7323"
       gradientUnits="userSpaceOnUse" /><radialGradient
       inkscape:collect="always"
       xlink:href="#linearGradient1008"
       id="radialGradient1010"
       cx="16.933332"
       cy="279.86823"
       fx="16.933332"
       fy="279.86823"
       r="9.9384117"
       gradientTransform="matrix(1,0,0,0.72410983,8.9009603e-7,75.552481)"
       gradientUnits="userSpaceOnUse" /><filter
       inkscape:collect="always"
       style="color-interpolation-filters:sRGB"
       id="filter2"
       x="-0.033285283"
       y="-0.039907134"
       width="1.0665706"
       height="1.0798143"><feGaussianBlur
         inkscape:collect="always"
         stdDeviation="0.11129282"
         id="feGaussianBlur2" /></filter><filter
       inkscape:collect="always"
       style="color-interpolation-filters:sRGB"
       id="filter3"
       x="-0.036588906"
       y="-0.037108576"
       width="1.0731778"
       height="1.0742172"><feGaussianBlur
         inkscape:collect="always"
         stdDeviation="0.11129285"
         id="feGaussianBlur3" /></filter></defs><sodipodi:namedview
     id="base"
     pagecolor="#303030"
     bordercolor="#666666"
     borderopacity="1.0"
     inkscape:pageopacity="0"
     inkscape:pageshadow="2"
     inkscape:zoom="4"
     inkscape:cx="61.375"
     inkscape:cy="79.875"
     inkscape:document-units="mm"
     inkscape:current-layer="layer1"
     showgrid="false"
     units="px"
     inkscape:showpageshadow="false"
     inkscape:window-width="1393"
     inkscape:window-height="1080"
     inkscape:window-x="239"
     inkscape:window-y="0"
     inkscape:window-maximized="0"
     inkscape:snap-nodes="false"
     inkscape:snap-others="true"
     inkscape:object-paths="true"
     inkscape:snap-intersection-paths="true"
     inkscape:snap-smooth-nodes="true"
     inkscape:snap-midpoints="true"
     inkscape:object-nodes="true"
     inkscape:document-rotation="0"
     inkscape:snap-bbox="false"
     inkscape:snap-bbox-midpoints="false"
     inkscape:bbox-paths="false"
     inkscape:pagecheckerboard="0"
     inkscape:deskcolor="#505050" /><metadata
     id="metadata5"><rdf:RDF><cc:Work
         rdf:about=""><dc:format>image/svg+xml</dc:format><dc:type
           rdf:resource="http://purl.org/dc/dcmitype/StillImage" /><dc:title /></cc:Work></rdf:RDF></metadata><g
     inkscape:label="Layer 1"
     inkscape:groupmode="layer"
     id="layer1"
     transform="translate(0,-263.13332)"
     style="display:inline;opacity:1"><g
       id="g5436"
       style="display:inline"
       transform="matrix(1.0328045,0,0,1.0328045,-0.55549076,-10.804541)"
       sodipodi:insensitive="true"><g
         id="g5336"
         style="display:inline"
         inkscape:label="g5336"><g
           style="display:inline;stroke-width:0.964705"
           id="g4667"
           transform="matrix(1.0360386,0,0,1.0371347,-0.62860759,-7.9656578)"><g
             id="g4651"
             transform="matrix(-0.75291465,-0.43537136,-0.48467149,0.87780054,168.26399,36.76293)"
             style="display:inline;stroke-width:1.03313"><ellipse
               ry="4.8363223"
               rx="4.7134547"
               cy="281.33475"
               cx="5.6601038"
               id="ellipse4641"
               style="opacity:1;fill:#8a1e00;fill-opacity:1;stroke:#813821;stroke-width:0.683374;stroke-miterlimit:4;stroke-dasharray:none;stroke-opacity:1" /><path
               inkscape:connector-curvature="0"
               id="path4643"
               d="m 5.6601562,276.83789 c -2.4200137,0 -4.3828124,2.01111 -4.3828124,4.49609 -2e-7,2.485 1.9626567,4.49805 4.3828124,4.49805 2.4201559,0 4.3828128,-2.01305 4.3828128,-4.49805 0,-2.48498 -1.9627989,-4.49609 -4.3828128,-4.49609 z m 0,0.52734 c 2.127372,0 3.8535157,1.7611 3.8535157,3.96875 0,2.20767 -1.7262857,3.97071 -3.8535157,3.97071 -2.1272298,0 -3.8535157,-1.76304 -3.8535156,-3.97071 0,-2.20765 1.7261438,-3.96875 3.8535156,-3.96875 z"
               style="color:#000000;font-style:normal;font-variant:normal;font-weight:normal;font-stretch:normal;font-size:medium;line-height:normal;font-family:sans-serif;font-variant-ligatures:normal;font-variant-position:normal;font-variant-caps:normal;font-variant-numeric:normal;font-variant-alternates:normal;font-feature-settings:normal;text-indent:0;text-align:start;text-decoration:none;text-decoration-line:none;text-decoration-style:solid;text-decoration-color:#000000;letter-spacing:normal;word-spacing:normal;text-transform:none;writing-mode:lr-tb;direction:ltr;text-orientation:mixed;dominant-baseline:auto;baseline-shift:baseline;text-anchor:start;white-space:normal;shape-padding:0;clip-rule:nonzero;display:inline;overflow:visible;visibility:visible;opacity:1;isolation:auto;mix-blend-mode:normal;color-interpolation:sRGB;color-interpolation-filters:linearRGB;solid-color:#000000;solid-opacity:1;vector-effect:none;fill:url(#linearGradient4653);fill-opacity:1;fill-rule:nonzero;stroke:none;stroke-width:0.546699;stroke-linecap:butt;stroke-linejoin:miter;stroke-miterlimit:4;stroke-dasharray:none;stroke-dashoffset:0;stroke-opacity:1;color-rendering:auto;image-rendering:auto;shape-rendering:auto;text-rendering:auto;enable-background:accumulate" /><g
               style="stroke:none;stroke-width:1.27341"
               transform="matrix(0.83009017,0,0,0.7929613,1.0460328,58.24717)"
               id="g4649"><path
                 style="opacity:1;fill:#f7dfd2;fill-opacity:1;stroke:none;stroke-width:0.505383;stroke-miterlimit:4;stroke-dasharray:none;stroke-opacity:1"
                 d="m 11.787256,281.41925 c 3e-6,2.12807 -2.3317775,3.08172 -4.9836911,3.85322 -2.2968172,0.6682 -4.5378267,-1.36408 -4.5378231,-3.85322 3.6e-6,-2.48914 2.231343,-4.44516 4.5378231,-3.85322 2.6732481,0.68606 4.9836871,1.72514 4.9836911,3.85322 z"
                 id="path4645"
                 inkscape:connector-curvature="0"
                 sodipodi:nodetypes="sszss" /></g></g><g
             style="display:inline;stroke-width:1.03313"
             transform="matrix(0.75291465,-0.43537136,0.48467149,0.87780054,-134.36189,36.76293)"
             id="g2228"><ellipse
               style="display:inline;opacity:1;fill:#8a1e00;fill-opacity:1;stroke:#813821;stroke-width:0.683374;stroke-miterlimit:4;stroke-dasharray:none;stroke-opacity:1"
               id="path834"
               cx="5.6601038"
               cy="281.33475"
               rx="4.7134547"
               ry="4.8363223" /><path
               style="color:#000000;font-style:normal;font-variant:normal;font-weight:normal;font-stretch:normal;font-size:medium;line-height:normal;font-family:sans-serif;font-variant-ligatures:normal;font-variant-position:normal;font-variant-caps:normal;font-variant-numeric:normal;font-variant-alternates:normal;font-feature-settings:normal;text-indent:0;text-align:start;text-decoration:none;text-decoration-line:none;text-decoration-style:solid;text-decoration-color:#000000;letter-spacing:normal;word-spacing:normal;text-transform:none;writing-mode:lr-tb;direction:ltr;text-orientation:mixed;dominant-baseline:auto;baseline-shift:baseline;text-anchor:start;white-space:normal;shape-padding:0;clip-rule:nonzero;display:inline;overflow:visible;visibility:visible;opacity:1;isolation:auto;mix-blend-mode:normal;color-interpolation:sRGB;color-interpolation-filters:linearRGB;solid-color:#000000;solid-opacity:1;vector-effect:none;fill:url(#linearGradient1333);fill-opacity:1;fill-rule:nonzero;stroke:none;stroke-width:0.546699;stroke-linecap:butt;stroke-linejoin:miter;stroke-miterlimit:4;stroke-dasharray:none;stroke-dashoffset:0;stroke-opacity:1;color-rendering:auto;image-rendering:auto;shape-rendering:auto;text-rendering:auto;enable-background:accumulate"
               d="m 5.6601562,276.83789 c -2.4200137,0 -4.3828124,2.01111 -4.3828124,4.49609 -2e-7,2.485 1.9626567,4.49805 4.3828124,4.49805 2.4201559,0 4.3828128,-2.01305 4.3828128,-4.49805 0,-2.48498 -1.9627989,-4.49609 -4.3828128,-4.49609 z m 0,0.52734 c 2.127372,0 3.8535157,1.7611 3.8535157,3.96875 0,2.20767 -1.7262857,3.97071 -3.8535157,3.97071 -2.1272298,0 -3.8535157,-1.76304 -3.8535156,-3.97071 0,-2.20765 1.7261438,-3.96875 3.8535156,-3.96875 z"
               id="ellipse1317"
               inkscape:connector-curvature="0" /><g
               id="g1337"
               transform="matrix(0.83009017,0,0,0.7929613,1.0460328,58.24717)"
               style="stroke:none;stroke-width:1.27341"><path
                 sodipodi:nodetypes="sszss"
                 inkscape:connector-curvature="0"
                 id="ellipse941"
                 d="m 11.798228,281.40141 c 3e-6,2.12807 -2.3317773,3.08172 -4.9836909,3.85322 -2.2968172,0.6682 -4.5378267,-1.36408 -4.5378231,-3.85322 3.6e-6,-2.48914 2.231343,-4.44516 4.5378231,-3.85322 2.6732481,0.68606 4.9836869,1.72514 4.9836909,3.85322 z"
                 style="opacity:1;fill:#f7dfd2;fill-opacity:1;stroke:none;stroke-width:0.505383;stroke-miterlimit:4;stroke-dasharray:none;stroke-opacity:1" /><path
                 sodipodi:nodetypes="sszss"
                 inkscape:connector-curvature="0"
                 id="path1"
                 d="m 11.006251,281.43865 c 2e-6,1.79352 -1.9652022,2.59725 -4.2002122,3.24746 -1.9357378,0.56316 -3.8244413,-1.14963 -3.8244383,-3.24746 3e-6,-2.09782 1.8805567,-3.74634 3.8244383,-3.24746 2.2529905,0.57821 4.2002082,1.45394 4.2002122,3.24746 z"
                 style="opacity:1;fill:#f9c397;fill-opacity:1;stroke:none;stroke-width:0.425932;stroke-miterlimit:4;stroke-dasharray:none;stroke-opacity:1;filter:url(#filter2)" /><path
                 sodipodi:nodetypes="sszss"
                 inkscape:connector-curvature="0"
                 id="path2"
                 d="m 28.596245,290.57145 c -1.671973,0.92542 -1.407221,2.88695 -0.860138,4.98164 0.473814,1.8142 3.045067,2.41704 5.000725,1.33459 1.955648,-1.08244 2.522112,-3.41324 1.054031,-4.68587 -1.70153,-1.47499 -3.522644,-2.55578 -5.194618,-1.63036 z"
                 style="opacity:1;fill:#f9c397;fill-opacity:1;stroke:none;stroke-width:0.425932;stroke-miterlimit:4;stroke-dasharray:none;stroke-opacity:1;filter:url(#filter3)" /></g></g></g><g
           id="g1"
           transform="rotate(15,12.349907,271.71731)"><path
             style="display:inline;fill:url(#linearGradient912);fill-opacity:1;stroke:none;stroke-width:0.264583px;stroke-linecap:butt;stroke-linejoin:miter;stroke-opacity:1"
             d="m 14.312283,271.9301 c 0.536465,-1.2379 -0.825666,-3.76898 -0.935443,-3.64822 1.040069,0.42907 2.280646,1.2571 2.642627,3.22728 0.203734,-1.44823 -0.837084,-3.50388 -1.73057,-5.37881 1.426452,0.98907 3.126949,1.76983 3.835318,5.33203 0.123275,-1.40316 -0.360533,-3.04019 -0.795127,-4.44335 1.777376,1.60292 2.064582,3.23005 2.408767,4.65383 l -0.818514,1.21607 -2.361994,0.65481 h -1.73057 l -0.584652,-0.4911 z"
             id="path5478"
             inkscape:connector-curvature="0"
             sodipodi:nodetypes="cccccccccccc" /><path
             style="color:#000000;font-style:normal;font-variant:normal;font-weight:normal;font-stretch:normal;font-size:medium;line-height:normal;font-family:sans-serif;font-variant-ligatures:normal;font-variant-position:normal;font-variant-caps:normal;font-variant-numeric:normal;font-variant-alternates:normal;font-feature-settings:normal;text-indent:0;text-align:start;text-decoration:none;text-decoration-line:none;text-decoration-style:solid;text-decoration-color:#000000;letter-spacing:normal;word-spacing:normal;text-transform:none;writing-mode:lr-tb;direction:ltr;text-orientation:mixed;dominant-baseline:auto;baseline-shift:baseline;text-anchor:start;white-space:normal;shape-padding:0;clip-rule:nonzero;display:inline;overflow:visible;visibility:visible;opacity:1;isolation:auto;mix-blend-mode:normal;color-interpolation:sRGB;color-interpolation-filters:linearRGB;solid-color:#000000;solid-opacity:1;vector-effect:none;fill:url(#linearGradient5456);fill-opacity:1;fill-rule:nonzero;stroke:none;stroke-width:0.343958;stroke-linecap:round;stroke-linejoin:round;stroke-miterlimit:4;stroke-dasharray:none;stroke-dashoffset:0;stroke-opacity:1;color-rendering:auto;image-rendering:auto;shape-rendering:auto;text-rendering:auto;enable-background:accumulate"
             d="m 14.804533,266.63852 c -0.104586,0.004 -0.181137,0.10019 -0.162109,0.20312 0.0043,0.0238 0.01366,0.0464 0.02734,0.0664 6.61e-4,6.7e-4 0.0013,10e-4 0.002,0.002 0.652966,0.94264 1.361077,2.31506 1.347657,4.51368 -6.2e-5,0.003 -6.2e-5,0.005 0,0.008 5e-6,1.2e-4 0.0018,0.005 0.002,0.006 0,0.0281 0.0015,0.005 0.002,0.006 7.6e-5,4.8e-4 -8.5e-5,0.001 0,0.002 2.88e-4,-0.004 -1.33e-4,0.0178 0,0.004 -1.6e-5,10e-4 -1.6e-5,0.003 0,0.004 6.84e-4,0.0442 -0.0081,0.0561 -0.02148,0.0684 -0.01342,0.0123 -0.03918,0.023 -0.06641,0.0234 -0.02722,4.2e-4 -0.05259,-0.01 -0.06641,-0.0215 -0.01381,-0.0119 -0.02471,-0.0241 -0.02539,-0.0684 1.6e-5,-0.001 1.6e-5,-0.003 0,-0.004 -0.05289,-1.27548 -0.763378,-2.10306 -1.466797,-2.61719 -0.107118,-0.0783 -0.181595,-0.11709 -0.242188,-0.14062 -0.06059,-0.0235 -0.0909,-0.0304 -0.169922,-0.0723 -0.164296,-0.0887 -0.332367,0.11117 -0.216797,0.25781 0.09888,0.12567 0.170613,0.18655 0.220704,0.24024 0.05009,0.0537 0.09393,0.10935 0.171874,0.26953 0.390898,0.80329 0.519701,1.96511 -0.08984,3.26562 -0.04992,0.10536 0.01724,0.2288 0.132812,0.24414 l 3.316407,0.41602 c 0.04021,0.005 0.08102,-0.004 0.115234,-0.0254 l 1.96875,-1.2793 c 0.05516,-0.0353 0.08546,-0.099 0.07813,-0.16406 -0.234018,-1.79636 -0.764689,-3.19075 -1.399309,-3.972 -0.01106,-0.15408 -0.470554,-0.57556 -0.456935,-0.27147 -0.09931,-0.34005 0.148838,0.0288 0.111048,-0.0112 -0.130085,-0.1389 -0.294445,0.25184 -0.223557,0.42848 0.283688,0.72041 0.551685,1.72708 0.533203,3.19336 3.64e-4,0.006 10e-4,0.0118 0.002,0.0176 9.59e-4,0.0101 0.0039,0.009 0.0059,0.0176 5.24e-4,0.009 8.1e-4,0.0121 0.002,0.0195 -0.0021,0.08 -0.03523,0.0842 -0.08594,0.0859 -0.05071,0.002 -0.08433,-4.2e-4 -0.0918,-0.0801 -0.229214,-2.54029 -1.935389,-3.84772 -3.117187,-4.57421 -0.0013,-10e-4 -0.0026,-0.003 -0.0039,-0.004 -0.03383,-0.0374 -0.08238,-0.0581 -0.132813,-0.0566 z m 0.489454,0.65013 c 1.07959,0.82809 1.942933,2.03118 2.108462,4.23086 0.02317,0.24717 0.559263,0.18436 0.759506,0.1776 0.136912,-0.005 0.206746,-0.15992 0.285156,-0.28906 0.06408,-0.0148 0.114116,-0.0648 0.128906,-0.12891 9.6e-5,-0.002 0.0038,-0.002 0.0039,-0.004 4e-6,-6.7e-4 4e-6,-0.001 0,-0.002 7.9e-5,-0.004 -0.0017,-0.005 -0.002,-0.01 0.002,-0.0123 0.0027,-0.0247 0.002,-0.0371 -0.0015,-0.0167 -0.0059,-0.0173 -0.0098,-0.0293 v 0.0195 c 0.0995,-0.0553 0.107755,-0.0104 0.107955,-0.0323 -2.25e-4,-5.2e-4 -0.03792,0.84246 -0.0051,0.69362 0.03987,-1.39744 -0.136343,-2.59504 -0.280227,-3.30204 0.242943,0.42879 0.693566,1.48041 0.794274,3.39682 l -1.706775,0.99188 -2.952604,-0.43437 c 0.496496,-1.2085 0.216233,-2.51862 -0.112455,-3.2155 0.47685,0.30205 0.845883,1.3518 0.886199,2.29479 0.002,0.13023 0.257287,0.0996 0.342968,0.17344 0.08568,0.0738 0.193239,0.10705 0.296875,0.10547 0.103635,-0.002 0.209592,-0.0369 0.292968,-0.11328 0.05758,-0.0528 0.07127,-0.14312 0.0918,-0.22656 0.02323,-0.0269 0.03756,-0.0603 0.04102,-0.0957 v -0.002 c -1.8e-5,-0.005 7.9e-5,0.002 0,-0.002 -7.9e-5,-0.004 1.18e-4,3.2e-4 0,-0.002 3e-4,-0.006 3e-4,-0.0117 0,-0.0176 -2.42e-4,-0.006 -0.003,-0.006 -0.0039,-0.0117 v 0.008 c 4.2e-5,-0.007 -0.002,-0.0106 -0.002,-0.0176 -8.37e-4,-0.004 -9.96e-4,-0.005 -0.002,-0.008 -0.0063,-0.0217 -0.01276,-0.0491 -0.01367,-0.0508 -7.21e-4,-0.001 0.251047,-0.0135 0.255847,-9.4e-4 -0.06989,-1.80827 -0.627434,-2.91393 -1.307304,-4.05927 z"
             id="path5438"
             inkscape:connector-curvature="0"
             sodipodi:nodetypes="cccccccccccccccccccccccccccccccccccccccccccccccccccccccccccccccccccscccccccccc" /><path
             inkscape:connector-curvature="0"
             id="path5471"
             d="m 15.352426,269.30317 c -0.67141,-0.65705 -1.474869,-1.1077 -2.433478,-1.30543 0,0 0.662394,0.65964 0.911493,1.51763 0.281182,0.96849 0.208516,2.01913 -0.672312,3.37812 -0.09557,0.16626 0.402462,0.27716 0.592781,0.30045 l 3.749175,0.47261 c 0.06236,0.007 0.125343,-0.007 0.177967,-0.0415 l 2.230521,-1.44749 c 0.08332,-0.0543 0.308694,-0.0961 0.299553,-0.19504 -0.129572,-3.00479 -1.760697,-5.0385 -3.524074,-5.74036 0.638882,0.7161 0.935,1.75275 0.968785,2.48584 -1.536011,-2.31328 -4.065271,-2.92772 -4.065271,-2.92772 0,0 1.420524,1.55565 1.76486,3.50289 z m -0.612813,-2.57752 c 1.185202,0.72707 2.870027,2.00908 3.096629,4.52046 0.01194,0.35721 0.547811,0.33939 0.535879,-0.0178 2.58e-4,-0.0136 -0.0042,-0.0161 -0.0039,-0.0297 h 0.002 c -6.18e-4,-0.007 -0.06837,0.13034 -0.06907,0.12344 0.06782,-1.3443 -0.05094,-2.83572 -0.344982,-3.58454 0.864322,0.6163 1.490968,2.36471 1.595933,4.05627 l -2.083653,1.32889 -3.278382,-0.35058 c 0.472634,-1.37963 0.402923,-3.23416 -0.387741,-4.06112 1.451468,0.60355 1.740238,1.83516 1.793513,2.70714 0.03218,0.32719 0.511669,0.31993 0.533901,-0.008 4.9e-5,-0.005 -0.002,-0.009 -0.002,-0.0139 h 0.002 c -1.97e-4,-0.005 -0.0037,-0.007 -0.0039,-0.0118 0.01373,-2.24862 -0.714985,-3.68335 -1.386167,-4.65888 z"
             style="color:#000000;font-style:normal;font-variant:normal;font-weight:normal;font-stretch:normal;font-size:medium;line-height:normal;font-family:sans-serif;font-variant-ligatures:normal;font-variant-position:normal;font-variant-caps:normal;font-variant-numeric:normal;font-variant-alternates:normal;font-feature-settings:normal;text-indent:0;text-align:start;text-decoration:none;text-decoration-line:none;text-decoration-style:solid;text-decoration-color:#000000;letter-spacing:normal;word-spacing:normal;text-transform:none;writing-mode:lr-tb;direction:ltr;text-orientation:mixed;dominant-baseline:auto;baseline-shift:baseline;text-anchor:start;white-space:normal;shape-padding:0;clip-rule:nonzero;display:inline;overflow:visible;visibility:visible;opacity:1;isolation:auto;mix-blend-mode:normal;color-interpolation:sRGB;color-interpolation-filters:linearRGB;solid-color:#000000;solid-opacity:1;vector-effect:none;fill:url(#linearGradient5486);fill-opacity:1;fill-rule:nonzero;stroke:none;stroke-width:0.529167;stroke-linecap:round;stroke-linejoin:round;stroke-miterlimit:4;stroke-dasharray:none;stroke-dashoffset:0;stroke-opacity:1;color-rendering:auto;image-rendering:auto;shape-rendering:auto;text-rendering:auto;enable-background:accumulate"
             sodipodi:nodetypes="ccccccccccccccccccccccccccccccc"
             inkscape:label="path5471" /></g><path
           style="display:inline;opacity:1;fill:#891e00;fill-opacity:1;stroke:#761e25;stroke-width:0.661458;stroke-miterlimit:4;stroke-dasharray:none;stroke-opacity:1"
           d="m 16.933334,271.04915 c -6.036808,0 -10.9306099,4.85879 -10.9306143,10.85242 1.593e-4,2.4455 0.8322401,4.36101 2.3613474,6.27822 -0.025735,0.15856 -0.039016,0.31773 -0.039801,0.47702 1.94e-5,2.82784 3.8544249,6.29406 8.6090679,6.29406 4.754643,0 8.609049,-3.46622 8.609068,-6.29406 -0.0026,-0.16238 -0.01828,-0.3246 -0.04686,-0.48608 1.529696,-1.91385 2.364177,-3.82592 2.3684,-6.26916 -4e-6,-5.99363 -4.893807,-10.85242 -10.930615,-10.85242 z"
           id="path832"
           inkscape:connector-curvature="0"
           sodipodi:nodetypes="ccccsccccc" /><ellipse
           style="display:inline;opacity:0.8;fill:url(#radialGradient1010);fill-opacity:1;fill-rule:nonzero;stroke:none;stroke-width:0.529;stroke-linejoin:round;stroke-dashoffset:5.66929;stroke-opacity:1"
           id="path992"
           cx="16.933332"
           cy="278.20782"
           rx="9.9384117"
           ry="7.1965017" /><path
           style="color:#000000;font-style:normal;font-variant:normal;font-weight:normal;font-stretch:normal;font-size:medium;line-height:normal;font-family:sans-serif;font-variant-ligatures:normal;font-variant-position:normal;font-variant-caps:normal;font-variant-numeric:normal;font-variant-alternates:normal;font-feature-settings:normal;text-indent:0;text-align:start;text-decoration:none;text-decoration-line:none;text-decoration-style:solid;text-decoration-color:#000000;letter-spacing:normal;word-spacing:normal;text-transform:none;writing-mode:lr-tb;direction:ltr;text-orientation:mixed;dominant-baseline:auto;baseline-shift:baseline;text-anchor:start;white-space:normal;shape-padding:0;clip-rule:nonzero;display:inline;overflow:visible;visibility:visible;opacity:1;isolation:auto;mix-blend-mode:normal;color-interpolation:sRGB;color-interpolation-filters:linearRGB;solid-color:#000000;solid-opacity:1;vector-effect:none;fill:#7d3131;fill-opacity:1;fill-rule:nonzero;stroke:none;stroke-width:1.5;stroke-linecap:butt;stroke-linejoin:miter;stroke-miterlimit:4;stroke-dasharray:none;stroke-dashoffset:0;stroke-opacity:1;color-rendering:auto;image-rendering:auto;shape-rendering:auto;text-rendering:auto;enable-background:accumulate"
           d="m 48.757812,49.324219 c -17.409557,-0.267263 -29.66015,23.210471 -9.65039,38.230469 -0.770378,1.939272 -0.751532,4.568597 -0.75586,6.160156 3.14e-4,5.252674 1.804005,9.802876 6.078126,13.691406 5.566793,5.06464 12.034166,6.44922 19.509765,6.44922 0.02031,0 0.04026,-0.002 0.06055,-0.002 0.0203,0 0.04014,0.002 0.06055,0.002 7.475599,0 13.942971,-1.38458 19.509765,-6.44922 4.274121,-3.88853 6.077812,-8.438732 6.078126,-13.691406 -0.0043,-1.591559 0.01452,-4.220881 -0.75586,-6.160156 C 108.90233,72.534694 96.651746,49.057006 79.242188,49.324219 74.367515,49.399053 69.08876,51.334722 64,55.839844 58.91124,51.334709 53.632489,49.399052 48.757812,49.324219 Z"
           transform="matrix(0.26458333,0,0,0.26458333,0,263.26561)"
           id="path2302"
           inkscape:connector-curvature="0" /><path
           style="color:#000000;font-style:normal;font-variant:normal;font-weight:normal;font-stretch:normal;font-size:medium;line-height:normal;font-family:sans-serif;font-variant-ligatures:normal;font-variant-position:normal;font-variant-caps:normal;font-variant-numeric:normal;font-variant-alternates:normal;font-feature-settings:normal;text-indent:0;text-align:start;text-decoration:none;text-decoration-line:none;text-decoration-style:solid;text-decoration-color:#000000;letter-spacing:normal;word-spacing:normal;text-transform:none;writing-mode:lr-tb;direction:ltr;text-orientation:mixed;dominant-baseline:auto;baseline-shift:baseline;text-anchor:start;white-space:normal;shape-padding:0;clip-rule:nonzero;display:inline;overflow:visible;visibility:visible;opacity:1;isolation:auto;mix-blend-mode:normal;color-interpolation:sRGB;color-interpolation-filters:linearRGB;solid-color:#000000;solid-opacity:1;vector-effect:none;fill:#f9c397;fill-opacity:1;fill-rule:nonzero;stroke:none;stroke-width:1.5;stroke-linecap:butt;stroke-linejoin:miter;stroke-miterlimit:4;stroke-dasharray:none;stroke-dashoffset:0;stroke-opacity:1;color-rendering:auto;image-rendering:auto;shape-rendering:auto;text-rendering:auto;enable-background:accumulate"
           d="m 48.75,51.271484 c -6.620857,-0.0023 -12.745657,3.620024 -16.033203,9.421875 -3.268865,5.890303 -4.260669,17.521826 7.966797,25.904297 l 0.425781,0.396485 -0.261719,0.507812 c -0.648041,1.264819 -0.974358,4.609816 -0.978515,6.210938 2.79e-4,4.670891 1.528445,8.522829 5.396484,12.499999 3.868039,3.97717 10.554953,7.74177 18.734375,7.74177 8.179423,0 14.866335,-3.76461 18.734375,-7.74177 3.868037,-3.97716 5.396205,-7.829108 5.396484,-12.499999 -0.0042,-1.601122 -0.330477,-4.946119 -0.978515,-6.210938 l -0.261719,-0.507812 0.425781,-0.396485 C 99.54387,78.215155 98.552067,66.583677 95.283203,60.693359 91.995657,54.89152 85.870855,51.269179 79.25,51.271484 74.100443,51.273299 68.650406,53.467578 64,58.533203 59.349592,53.467571 53.899556,51.273301 48.75,51.271484 Z"
           id="path844"
           inkscape:connector-curvature="0"
           transform="matrix(0.26458333,0,0,0.26458333,0,263.26561)"
           sodipodi:nodetypes="ccccccssscccccccc" /><path
           style="color:#000000;font-style:normal;font-variant:normal;font-weight:normal;font-stretch:normal;font-size:medium;line-height:normal;font-family:sans-serif;font-variant-ligatures:normal;font-variant-position:normal;font-variant-caps:normal;font-variant-numeric:normal;font-variant-alternates:normal;font-feature-settings:normal;text-indent:0;text-align:start;text-decoration:none;text-decoration-line:none;text-decoration-style:solid;text-decoration-color:#000000;letter-spacing:normal;word-spacing:normal;text-transform:none;writing-mode:lr-tb;direction:ltr;text-orientation:mixed;dominant-baseline:auto;baseline-shift:baseline;text-anchor:start;white-space:normal;shape-padding:0;clip-rule:nonzero;display:inline;overflow:visible;visibility:visible;opacity:1;isolation:auto;mix-blend-mode:normal;color-interpolation:sRGB;color-interpolation-filters:linearRGB;solid-color:#000000;solid-opacity:1;vector-effect:none;fill:url(#linearGradient1302);fill-opacity:1;fill-rule:nonzero;stroke:none;stroke-width:0.529167;stroke-linecap:butt;stroke-linejoin:miter;stroke-miterlimit:4;stroke-dasharray:none;stroke-dashoffset:0;stroke-opacity:1;color-rendering:auto;image-rendering:auto;shape-rendering:auto;text-rendering:auto;enable-background:accumulate"
           d="m 16.933597,271.37683 c -5.844109,0 -10.5811312,4.71852 -10.5811353,10.54181 1.541e-4,2.37466 0.8058865,4.2329 2.2878664,6.09847 h -0.00197 l 0.015819,0.0197 -0.00396,0.0257 c -0.024412,0.15101 -0.036716,0.3029 -0.03757,0.45481 v 0.002 c 9.2e-6,1.35692 0.9126437,2.74466 2.3125079,3.92577 1.274509,1.07533 3.22328,2.12579 6.024981,2.12579 2.801701,0 4.847804,-1.29856 5.973395,-2.14233 1.464821,-1.09806 2.328154,-2.55093 2.329045,-3.90725 v -0.002 -0.002 c -0.0027,-0.15377 -0.01645,-0.30728 -0.04351,-0.46075 l -0.0039,-0.0257 0.01582,-0.0218 c 1.48263,-1.86241 2.287772,-3.71634 2.291821,-6.08859 v -0.002 c -5e-6,-5.82322 -4.73505,-10.5418 -10.579158,-10.5418 z m 0,0.53589 c 5.556071,0 10.043275,4.47272 10.043279,10.00592 -0.0038,2.25386 -0.740435,3.95415 -2.175154,5.75637 l -0.166102,0.20961 0.04548,0.26299 v 0.002 c 0.02219,0.12587 0.03338,0.2497 0.0356,0.37571 -0.0023,1.10756 -0.834606,2.43227 -2.196906,3.4643 -1.242236,0.94108 -3.392975,2.04545 -5.586191,2.04545 -2.193218,0 -4.296415,-0.90599 -5.637778,-2.04545 -1.3038304,-1.10756 -2.1464693,-2.35984 -2.1472958,-3.46825 v -0.002 c 7.955e-4,-0.12321 0.00967,-0.24609 0.029661,-0.36978 l 0.043503,-0.26102 -0.1621478,-0.20369 c -1.4341462,-1.80534 -2.1710528,-3.51039 -2.1711991,-5.76625 3.8e-6,-5.53314 4.4891827,-10.00592 10.0452557,-10.00592 z"
           id="path1274"
           inkscape:connector-curvature="0"
           sodipodi:nodetypes="ccccccccczscccccccsccccccccccsccccccccc" /><path
           style="display:inline;opacity:1;fill:url(#linearGradient1461);fill-opacity:1;stroke:none;stroke-width:0.265343;stroke-miterlimit:4;stroke-dasharray:none;stroke-opacity:1"
           d="m 16.263353,286.47438 c -0.02052,0.002 -0.0356,0.007 -0.04329,0.0184 -0.06192,0.0881 0.257576,0.33393 0.371862,0.42144 0.11263,0.0863 0.264669,0.56955 0.341264,0.56955 8.9e-5,-10e-6 -0.07673,0 2.89e-4,0 0.07703,0 0.228636,-0.48331 0.341264,-0.56955 0.114286,-0.0875 0.433784,-0.33334 0.371862,-0.42144 -0.0077,-0.0109 -0.02276,-0.0166 -0.04329,-0.0184 -0.143571,-0.0125 -0.559685,0.17083 -0.669838,0.17105 h -2.88e-4 c -0.110153,-2.3e-4 -0.526268,-0.18369 -0.669838,-0.17105 z"
           id="path870"
           inkscape:connector-curvature="0"
           sodipodi:nodetypes="cccczccccccc" /><g
           id="g5193"
           transform="translate(-1.5896859e-6,0.396875)"
           style="display:inline"><ellipse
             transform="matrix(1.0124353,0,0,0.89693066,-0.34525816,29.957097)"
             ry="0.81981289"
             rx="1.7425196"
             cy="286.07834"
             cx="12.783423"
             id="path905"
             style="opacity:0.545;fill:#ffb2b2;fill-opacity:1;stroke:none;stroke-width:0.255921;stroke-miterlimit:4;stroke-dasharray:none;stroke-opacity:1;filter:url(#filter5187)" /><ellipse
             transform="matrix(1.0124353,0,0,0.89693066,-0.17059034,29.957097)"
             style="opacity:0.545;fill:#ffb2b2;fill-opacity:1;stroke:none;stroke-width:0.255921;stroke-miterlimit:4;stroke-dasharray:none;stroke-opacity:1;filter:url(#filter4387)"
             id="ellipse907"
             cx="21.176786"
             cy="286.07834"
             rx="1.7425196"
             ry="0.81981289" /></g><path
           style="display:inline;opacity:1;fill:none;stroke:#550000;stroke-width:0.529;stroke-linecap:butt;stroke-linejoin:round;stroke-miterlimit:4;stroke-dasharray:none;stroke-opacity:1;marker-start:url(#StopS);marker-end:url(#marker1630)"
           d="m 11.627149,288.1961 c 0,0 1.714701,3.15328 5.306184,3.15328 3.591483,0 5.306183,-3.15328 5.306183,-3.15328"
           id="path1150"
           inkscape:connector-curvature="0"
           sodipodi:nodetypes="czc" /><g
           id="g1002"
           transform="translate(0.08359882)"
           style="display:inline"><circle
             transform="matrix(0.9134155,0,0,0.9134155,0.87540271,24.791484)"
             r="3.2411458"
             cy="282.64633"
             cx="12.46849"
             id="path4791"
             style="display:inline;opacity:0.463389;fill:#f38c8c;fill-opacity:1;stroke:none;stroke-width:0.579327;stroke-linecap:round;stroke-linejoin:round;stroke-miterlimit:4;stroke-dasharray:none;stroke-opacity:1;filter:url(#filter5181)" /><circle
             style="display:inline;opacity:0.463389;fill:#f38c8c;fill-opacity:1;stroke:none;stroke-width:0.579327;stroke-linecap:round;stroke-linejoin:round;stroke-miterlimit:4;stroke-dasharray:none;stroke-opacity:1;filter:url(#filter5181)"
             id="circle5225"
             cx="12.46849"
             cy="282.64633"
             r="3.2411458"
             transform="matrix(0.9134155,0,0,0.9134155,10.046243,24.791484)" /></g><g
           id="g996"
           transform="translate(-0.10993013)"
           style="display:inline"><g
             style="stroke-width:1.00817"
             transform="matrix(0.99188765,0,0,0.99190842,0.22500239,3.0614136)"
             id="g1621"><g
               id="g883"
               transform="matrix(0.98001211,0,0,0.9812554,0.48092928,4.2720966)"
               style="stroke-width:1.04643"><circle
                 r="3.3256471"
                 cy="282.58017"
                 cx="12.236979"
                 id="path860"
                 style="opacity:1;fill:#ffffff;fill-opacity:1;stroke:none;stroke-width:0.360926;stroke-miterlimit:4;stroke-dasharray:none;stroke-opacity:1" /><circle
                 style="opacity:1;fill:#2b0000;fill-opacity:1;stroke:none;stroke-width:0.264479;stroke-miterlimit:4;stroke-dasharray:none;stroke-opacity:1"
                 id="circle862"
                 r="2.4410198"
                 cy="282.58017"
                 cx="12.236979" /><circle
                 r="0.83231109"
                 cy="281.50964"
                 cx="12.236979"
                 id="circle864"
                 style="opacity:1;fill:#ffffff;fill-opacity:1;stroke:none;stroke-width:0.108727;stroke-miterlimit:4;stroke-dasharray:none;stroke-opacity:1" /></g><ellipse
               style="opacity:0.368421;fill:#ffffff;fill-opacity:1;stroke:none;stroke-width:0.503378;stroke-linecap:round;stroke-linejoin:round;stroke-miterlimit:4;stroke-dasharray:none;stroke-opacity:1;filter:url(#filter1465)"
               id="path1463"
               cx="12.473316"
               cy="281.22073"
               rx="1.0837847"
               ry="0.54189235"
               transform="matrix(0.91030197,0,0,1.2338908,1.1188331,-65.8536)" /><path
               style="color:#000000;font-style:normal;font-variant:normal;font-weight:normal;font-stretch:normal;font-size:medium;line-height:normal;font-family:sans-serif;font-variant-ligatures:normal;font-variant-position:normal;font-variant-caps:normal;font-variant-numeric:normal;font-variant-alternates:normal;font-feature-settings:normal;text-indent:0;text-align:start;text-decoration:none;text-decoration-line:none;text-decoration-style:solid;text-decoration-color:#000000;letter-spacing:normal;word-spacing:normal;text-transform:none;writing-mode:lr-tb;direction:ltr;text-orientation:mixed;dominant-baseline:auto;baseline-shift:baseline;text-anchor:start;white-space:normal;shape-padding:0;clip-rule:nonzero;display:inline;overflow:visible;visibility:visible;opacity:0.539;isolation:auto;mix-blend-mode:normal;color-interpolation:sRGB;color-interpolation-filters:linearRGB;solid-color:#000000;solid-opacity:1;vector-effect:none;fill:#ffffff;fill-opacity:1;fill-rule:nonzero;stroke:none;stroke-width:0.24032px;stroke-linecap:butt;stroke-linejoin:miter;stroke-miterlimit:4;stroke-dasharray:none;stroke-dashoffset:0;stroke-opacity:1;filter:url(#filter1603);color-rendering:auto;image-rendering:auto;shape-rendering:auto;text-rendering:auto;enable-background:accumulate"
               d="m 11.322482,282.86752 c 0,0 0.01005,0.0116 0.01499,0.017 -7.94e-4,-4e-4 -0.01499,-0.007 -0.01499,-0.007 0,0 0.186448,0.39988 0.63562,0.55035 0.152069,0.0509 0.326622,0.0795 0.513147,0.0744 0.0014,-4e-5 0.0027,4e-5 0.0041,0 0.186525,0.005 0.361079,-0.0235 0.513147,-0.0744 0.449172,-0.15047 0.63562,-0.55035 0.63562,-0.55035 0,0 -0.01418,0.007 -0.01499,0.007 0.0049,-0.005 0.01499,-0.017 0.01499,-0.017 0,0 -0.04625,0.0205 -0.05323,0.0238 v 0.0109 c -0.0693,0.034 -0.335048,0.16281 -0.666625,0.27389 -0.130357,0.0437 -0.275059,0.0714 -0.430982,0.0677 -0.155923,0.003 -0.300625,-0.024 -0.430981,-0.0677 -0.331578,-0.11108 -0.597324,-0.23985 -0.666626,-0.27389 v -0.0109 c -0.007,-0.003 -0.05323,-0.0238 -0.05323,-0.0238 z"
               id="path1469"
               inkscape:connector-curvature="0"
               transform="matrix(1.0716963,0,0,1.1495791,-0.89428761,-42.358583)" /></g><g
             id="g4611"
             transform="matrix(0.99188765,0,0,0.99190842,9.1172675,3.0614136)"
             style="stroke-width:1.00817"><g
               style="stroke-width:1.04643"
               transform="matrix(0.98001211,0,0,0.9812554,0.48092928,4.2720966)"
               id="g4605"><circle
                 style="opacity:1;fill:#ffffff;fill-opacity:1;stroke:none;stroke-width:0.360926;stroke-miterlimit:4;stroke-dasharray:none;stroke-opacity:1"
                 id="circle4599"
                 cx="12.236979"
                 cy="282.58017"
                 r="3.3256471" /><circle
                 cx="12.236979"
                 cy="282.58017"
                 r="2.4410198"
                 id="circle4601"
                 style="opacity:1;fill:#2b0000;fill-opacity:1;stroke:none;stroke-width:0.264479;stroke-miterlimit:4;stroke-dasharray:none;stroke-opacity:1" /><circle
                 style="opacity:1;fill:#ffffff;fill-opacity:1;stroke:none;stroke-width:0.108727;stroke-miterlimit:4;stroke-dasharray:none;stroke-opacity:1"
                 id="circle4603"
                 cx="12.236979"
                 cy="281.50964"
                 r="0.83231109" /></g><ellipse
               transform="matrix(0.91030197,0,0,1.2338908,1.1188331,-65.8536)"
               ry="0.54189235"
               rx="1.0837847"
               cy="281.22073"
               cx="12.473316"
               id="ellipse4607"
               style="opacity:0.368421;fill:#ffffff;fill-opacity:1;stroke:none;stroke-width:0.503378;stroke-linecap:round;stroke-linejoin:round;stroke-miterlimit:4;stroke-dasharray:none;stroke-opacity:1;filter:url(#filter1465)" /><path
               transform="matrix(1.0716963,0,0,1.1495791,-0.89428761,-42.358583)"
               inkscape:connector-curvature="0"
               id="path4609"
               d="m 11.322482,282.86752 c 0,0 0.01005,0.0116 0.01499,0.017 -7.94e-4,-4e-4 -0.01499,-0.007 -0.01499,-0.007 0,0 0.186448,0.39988 0.63562,0.55035 0.152069,0.0509 0.326622,0.0795 0.513147,0.0744 0.0014,-4e-5 0.0027,4e-5 0.0041,0 0.186525,0.005 0.361079,-0.0235 0.513147,-0.0744 0.449172,-0.15047 0.63562,-0.55035 0.63562,-0.55035 0,0 -0.01418,0.007 -0.01499,0.007 0.0049,-0.005 0.01499,-0.017 0.01499,-0.017 0,0 -0.04625,0.0205 -0.05323,0.0238 v 0.0109 c -0.0693,0.034 -0.335048,0.16281 -0.666625,0.27389 -0.130357,0.0437 -0.275059,0.0714 -0.430982,0.0677 -0.155923,0.003 -0.300625,-0.024 -0.430981,-0.0677 -0.331578,-0.11108 -0.597324,-0.23985 -0.666626,-0.27389 v -0.0109 c -0.007,-0.003 -0.05323,-0.0238 -0.05323,-0.0238 z"
               style="color:#000000;font-style:normal;font-variant:normal;font-weight:normal;font-stretch:normal;font-size:medium;line-height:normal;font-family:sans-serif;font-variant-ligatures:normal;font-variant-position:normal;font-variant-caps:normal;font-variant-numeric:normal;font-variant-alternates:normal;font-feature-settings:normal;text-indent:0;text-align:start;text-decoration:none;text-decoration-line:none;text-decoration-style:solid;text-decoration-color:#000000;letter-spacing:normal;word-spacing:normal;text-transform:none;writing-mode:lr-tb;direction:ltr;text-orientation:mixed;dominant-baseline:auto;baseline-shift:baseline;text-anchor:start;white-space:normal;shape-padding:0;clip-rule:nonzero;display:inline;overflow:visible;visibility:visible;opacity:0.539;isolation:auto;mix-blend-mode:normal;color-interpolation:sRGB;color-interpolation-filters:linearRGB;solid-color:#000000;solid-opacity:1;vector-effect:none;fill:#ffffff;fill-opacity:1;fill-rule:nonzero;stroke:none;stroke-width:0.24032px;stroke-linecap:butt;stroke-linejoin:miter;stroke-miterlimit:4;stroke-dasharray:none;stroke-dashoffset:0;stroke-opacity:1;filter:url(#filter1603);color-rendering:auto;image-rendering:auto;shape-rendering:auto;text-rendering:auto;enable-background:accumulate" /></g></g></g></g></g></svg>
